<svg width="447" height="307" viewBox="0 0 447 307" fill="none" xmlns="http://www.w3.org/2000/svg">
<path d="M78.8897 183.219C111.065 192.878 116.511 174.6 113.943 161.828L177.426 233.494C150.945 256.576 95.1515 294.393 83.8312 261C69.6807 219.258 37.9744 252.266 20.569 230.523C-7.53315 195.417 35.42 170.17 78.8897 183.219Z" fill="#FFB2EA"/>
<path d="M237.798 59.6894C237.226 59.1738 236.261 58.7217 236.145 58.113C233.794 45.3496 224.596 39.7856 213.27 37.0781C202.961 34.614 192.882 36.3838 183.423 41.0536C169.259 48.0248 162.022 64.6318 166.352 80.2601C167.002 82.6063 166.659 83.6678 164.544 84.9317C150.657 93.233 137.672 102.799 128.887 116.655C122.978 130.592 117.979 136.179 115.102 157.443C113.233 171.257 118.86 186.43 111.211 201.768C110.18 212.218 92.8628 212.382 87.5188 221C81.237 231.131 81.33 234.414 81.0037 246.655C80.8769 251.527 81.6772 256.649 83.1547 261.318C90.1941 283.628 106.899 294.016 128.921 297.803C145.818 300.708 161.743 298.015 177.003 290.512C180.245 288.201 183.486 285.878 186.727 283.567C193.839 277.108 201.707 272.462 211.784 274.286C219.055 275.595 222.902 276.321 230.085 278.06C231.793 278.478 235.518 280.623 238.231 281.655C242.48 283.272 246.729 284.902 250.978 286.519C263.697 288.919 276.478 288.878 289.288 287.46C292.925 286.113 296.574 284.764 300.21 283.404C305.32 279.986 310.43 276.568 315.539 273.15C320.993 269.491 327.029 267.516 333.558 267.448C339.471 267.381 345.397 267.518 351.289 267.939C353.984 268.127 356.62 269.218 359.282 269.896C362.642 271.068 366.004 272.254 369.364 273.427C377.031 274.698 384.659 276.781 392.353 277.075C407.383 277.66 420.447 271.966 431.019 261.385C441.216 251.174 446.361 235.572 442.15 222.426C439.828 215.167 435.067 208.982 429.12 204.412C416.431 194.664 398.364 198.351 394.775 179.441C391.92 164.412 394.526 150.037 388.255 135.777C378.37 113.327 368.323 107.348 350.591 90.697C348.845 89.0623 348.231 87.8947 349.025 85.444C354.662 67.8989 345.592 47.7583 328.728 40.3196C319.603 36.2913 310.131 34.4928 300.146 36.7316C291.059 38.7721 284.214 43.1476 282.417 53.0554C282.865 57.0702 283.711 61.0982 283.632 65.1079C283.55 68.874 280.636 71.2925 277.633 71.0854C274.668 70.8887 273.686 69.167 273.44 64.7029C273.261 61.4797 274.137 57.8814 271.895 56.137C268.111 56.3774 265.255 56.6744 262.394 56.7021C260.046 56.7228 258.619 57.0831 259.089 60.0439C259.43 62.1786 259.242 64.4625 258.891 66.6156C258.358 69.9482 256.004 71.8947 253.246 71.7106C250.435 71.5169 248.631 69.3725 248.384 65.8968C248.198 63.38 248.065 60.8727 247.888 58.0857C244.214 58.6528 240.986 59.1532 237.757 59.6535L237.798 59.6894Z" fill="#FFB2EA"/>
<path d="M293.524 124.072C292.488 122.199 290.487 121.068 288.349 120.918C285.916 120.745 283.715 120.583 281.505 120.611C279.197 120.641 277.08 122.007 277.495 124.388C277.748 125.874 279.647 127.835 281.127 128.174C283.983 128.836 287.123 128.868 290.056 128.456C291.51 128.245 293.582 126.653 293.838 125.375C293.917 124.978 293.779 124.535 293.513 124.067L293.524 124.072Z" fill="#050504"/>
<path d="M251.122 126.399C249.723 124.778 247.532 124.081 245.409 124.373C242.993 124.703 240.805 124.996 238.647 125.477C236.395 125.979 234.603 127.75 235.497 129.996C236.05 131.398 238.311 132.928 239.829 132.956C242.76 133.019 245.84 132.405 248.626 131.401C250.006 130.896 251.707 128.913 251.696 127.609C251.691 127.205 251.465 126.799 251.109 126.396L251.122 126.399Z" fill="#050504"/>
<path d="M237.798 59.6904C241.026 59.19 244.242 58.6905 247.928 58.1226C248.104 60.8968 248.251 63.416 248.424 65.9337C248.671 69.4093 250.488 71.5529 253.286 71.7474C256.045 71.9316 258.398 69.9851 258.931 66.6524C259.282 64.4994 259.458 62.2163 259.13 60.0808C258.659 57.12 260.087 56.7597 262.434 56.7389C265.295 56.7112 268.151 56.4142 271.935 56.1738C274.176 57.9055 273.302 61.5165 273.481 64.7397C273.739 69.203 274.721 70.9248 277.673 71.1223C280.676 71.3294 283.591 68.9108 283.672 65.1448C283.751 61.135 282.906 57.1199 282.457 53.0923C282.24 52.6954 281.997 52.3129 281.804 51.9015C278.894 45.6942 274.968 42.9016 269.959 43.4509C264.478 44.0558 259.773 48.7958 258.494 55.526C255.26 49.0698 251.906 42.9548 243.526 46.8245C238.701 49.0564 236.562 54.3779 237.786 59.704L237.798 59.6904Z" fill="#050403"/>
<path d="M240.158 169.695C246.167 170.871 251.74 169.478 256.995 166.698C258.9 165.695 260.158 165.797 261.943 167.065C271.692 174.013 286.482 173.569 295.861 166.171C297.021 165.252 298.304 164.017 298.744 162.835C299.402 161.041 300.277 159.405 298.022 156.526C296.304 154.333 293.412 154.827 292.1 155.366C291.086 155.778 289.902 156.549 288.844 157.266C282.246 161.739 272.846 161.147 266.85 155.883C261.862 151.509 260.523 151.209 254.907 154.809C247.387 159.619 240.3 159.273 233.257 153.959C230.765 152.078 228.086 150.997 225.402 153.536C223.273 155.539 223.517 159.154 225.997 162.087C229.696 166.458 234.709 168.518 240.145 169.692L240.158 169.695Z" fill="#060800"/>
<path d="M263.906 143.927C264.068 147.087 266.694 149.436 269.961 149.332C273.24 149.226 275.758 146.627 275.6 143.531C275.431 140.269 272.583 137.677 269.333 137.832C266.274 137.975 263.759 140.805 263.918 143.926L263.906 143.927Z" fill="#FF6446"/>
<path d="M177.89 82.2889C177.362 79.6116 174.432 73.697 169.196 72.1043C164.615 70.7107 155.093 72.3585 152.699 75.0778C144.795 81.9977 147.721 89.7339 149.727 99.0126C153.735 111.594 170.943 109.9 177.389 101.309C180.757 96.8205 178.911 87.4665 177.898 82.3318L177.89 82.2889Z" fill="black"/>
<path d="M358.72 77.3975C358.192 74.7203 355.261 68.8057 350.026 67.2129C345.445 65.8193 335.923 67.4671 333.528 70.1864C325.625 77.1063 328.551 84.8425 330.557 94.1212C334.565 106.702 351.773 105.009 358.219 96.4178C361.586 91.9291 359.741 82.5752 358.728 77.4404L358.72 77.3975Z" fill="black"/>
<path d="M352.309 78.2377C353.067 74.4334 355.897 70.6828 356.963 66.8378C358.14 62.5871 357.223 57.9107 355.489 53.9598C351.887 45.754 346.483 37.8168 339.585 31.6472C333.99 26.6435 326.563 23.7576 319.235 21.4703C302.308 16.1865 283.045 15.2771 265.205 16.228C256.293 16.7031 247.326 18.3022 238.475 19.4332C228.073 20.7623 216.136 21.6087 206.437 25.4963C194.469 29.263 186.988 32.3521 177.057 38.7014C171.177 42.4613 161.63 49.1803 158.338 58.8234C153.163 75.6586 159.022 78.1813 158.173 81.1989C156.772 86.1787 159.326 77.8947 158.275 82.9575C157.688 85.7841 153.256 85.8956 153.917 88.7073C154.033 89.2031 155.38 92.9763 155.084 90.6613" stroke="black" stroke-width="10.2479" stroke-linecap="round"/>
</svg>
